<?xml version="1.0" encoding="utf-8" standalone="no"?>
<!DOCTYPE svg PUBLIC "-//W3C//DTD SVG 1.1//EN"
  "http://www.w3.org/Graphics/SVG/1.1/DTD/svg11.dtd">
<svg xmlns:xlink="http://www.w3.org/1999/xlink" width="460.8pt" height="345.6pt" viewBox="0 0 460.8 345.6" xmlns="http://www.w3.org/2000/svg" version="1.1">
 <metadata>
  <rdf:RDF xmlns:dc="http://purl.org/dc/elements/1.1/" xmlns:cc="http://creativecommons.org/ns#" xmlns:rdf="http://www.w3.org/1999/02/22-rdf-syntax-ns#">
   <cc:Work>
    <dc:type rdf:resource="http://purl.org/dc/dcmitype/StillImage"/>
    <dc:date>2025-05-28T17:16:45.111080</dc:date>
    <dc:format>image/svg+xml</dc:format>
    <dc:creator>
     <cc:Agent>
      <dc:title>Matplotlib v3.9.2, https://matplotlib.org/</dc:title>
     </cc:Agent>
    </dc:creator>
   </cc:Work>
  </rdf:RDF>
 </metadata>
 <defs>
  <style type="text/css">*{stroke-linejoin: round; stroke-linecap: butt}</style>
 </defs>
 <g id="figure_1">
  <g id="patch_1">
   <path d="M 0 345.6 
L 460.8 345.6 
L 460.8 0 
L 0 0 
z
" style="fill: #ffffff"/>
  </g>
  <g id="axes_1">
   <g id="patch_2">
    <path d="M 57.6 307.584 
L 414.72 307.584 
L 414.72 41.472 
L 57.6 41.472 
z
" style="fill: #ffffff"/>
   </g>
   <g id="matplotlib.axis_1">
    <g id="xtick_1">
     <g id="line2d_1">
      <defs>
       <path id="mf8afb67822" d="M 0 0 
L 0 3.5 
" style="stroke: #000000; stroke-width: 0.8"/>
      </defs>
      <g>
       <use xlink:href="#mf8afb67822" x="68.761761" y="307.584" style="stroke: #000000; stroke-width: 0.8"/>
      </g>
     </g>
     <g id="text_1">
      <!-- 9000 -->
      <g transform="translate(57.033636 322.57775) scale(0.1 -0.1)">
       <defs>
        <path id="MicrosoftYaHei-39" d="M 578 656 
Q 978 425 1441 425 
Q 2091 425 2448 937 
Q 2806 1450 2806 2394 
Q 2800 2388 2794 2394 
Q 2475 1788 1722 1788 
Q 1113 1788 713 2206 
Q 313 2625 313 3294 
Q 313 4006 750 4464 
Q 1188 4922 1884 4922 
Q 2606 4922 3012 4355 
Q 3419 3788 3419 2703 
Q 3419 1363 2894 641 
Q 2369 -81 1441 -81 
Q 931 -81 578 84 
L 578 656 
z
M 931 3372 
Q 931 2884 1181 2598 
Q 1431 2313 1872 2313 
Q 2253 2313 2512 2573 
Q 2772 2834 2772 3206 
Q 2772 3728 2514 4070 
Q 2256 4413 1834 4413 
Q 1444 4413 1187 4116 
Q 931 3819 931 3372 
z
" transform="scale(0.015625)"/>
        <path id="MicrosoftYaHei-30" d="M 284 2325 
Q 284 3606 709 4264 
Q 1134 4922 1941 4922 
Q 3478 4922 3478 2441 
Q 3478 1216 3045 567 
Q 2613 -81 1831 -81 
Q 1094 -81 689 534 
Q 284 1150 284 2325 
z
M 909 2353 
Q 909 425 1888 425 
Q 2850 425 2850 2384 
Q 2850 4413 1906 4413 
Q 909 4413 909 2353 
z
" transform="scale(0.015625)"/>
       </defs>
       <use xlink:href="#MicrosoftYaHei-39"/>
       <use xlink:href="#MicrosoftYaHei-30" x="58.642578"/>
       <use xlink:href="#MicrosoftYaHei-30" x="117.285156"/>
       <use xlink:href="#MicrosoftYaHei-30" x="175.927734"/>
      </g>
     </g>
    </g>
    <g id="xtick_2">
     <g id="line2d_2">
      <g>
       <use xlink:href="#mf8afb67822" x="125.105833" y="307.584" style="stroke: #000000; stroke-width: 0.8"/>
      </g>
     </g>
     <g id="text_2">
      <!-- 9500 -->
      <g transform="translate(113.377708 322.57775) scale(0.1 -0.1)">
       <defs>
        <path id="MicrosoftYaHei-35" d="M 3294 1494 
Q 3294 784 2823 350 
Q 2353 -84 1559 -84 
Q 878 -84 544 119 
L 544 744 
Q 1034 425 1544 425 
Q 2050 425 2361 704 
Q 2672 984 2672 1447 
Q 2672 1909 2348 2167 
Q 2025 2425 1434 2425 
Q 978 2425 613 2384 
L 791 4841 
L 3053 4841 
L 3053 4303 
L 1306 4303 
L 1206 2931 
L 1647 2950 
Q 2416 2950 2855 2567 
Q 3294 2184 3294 1494 
z
" transform="scale(0.015625)"/>
       </defs>
       <use xlink:href="#MicrosoftYaHei-39"/>
       <use xlink:href="#MicrosoftYaHei-35" x="58.642578"/>
       <use xlink:href="#MicrosoftYaHei-30" x="117.285156"/>
       <use xlink:href="#MicrosoftYaHei-30" x="175.927734"/>
      </g>
     </g>
    </g>
    <g id="xtick_3">
     <g id="line2d_3">
      <g>
       <use xlink:href="#mf8afb67822" x="181.449906" y="307.584" style="stroke: #000000; stroke-width: 0.8"/>
      </g>
     </g>
     <g id="text_3">
      <!-- 10000 -->
      <g transform="translate(166.789749 322.57775) scale(0.1 -0.1)">
       <defs>
        <path id="MicrosoftYaHei-31" d="M 1781 0 
L 1781 4141 
Q 1638 3997 1295 3819 
Q 953 3641 663 3569 
L 663 4169 
Q 1047 4275 1484 4508 
Q 1922 4741 2156 4947 
L 2388 4947 
L 2388 0 
L 1781 0 
z
" transform="scale(0.015625)"/>
       </defs>
       <use xlink:href="#MicrosoftYaHei-31"/>
       <use xlink:href="#MicrosoftYaHei-30" x="58.642578"/>
       <use xlink:href="#MicrosoftYaHei-30" x="117.285156"/>
       <use xlink:href="#MicrosoftYaHei-30" x="175.927734"/>
       <use xlink:href="#MicrosoftYaHei-30" x="234.570312"/>
      </g>
     </g>
    </g>
    <g id="xtick_4">
     <g id="line2d_4">
      <g>
       <use xlink:href="#mf8afb67822" x="237.793978" y="307.584" style="stroke: #000000; stroke-width: 0.8"/>
      </g>
     </g>
     <g id="text_4">
      <!-- 10500 -->
      <g transform="translate(223.133822 322.57775) scale(0.1 -0.1)">
       <use xlink:href="#MicrosoftYaHei-31"/>
       <use xlink:href="#MicrosoftYaHei-30" x="58.642578"/>
       <use xlink:href="#MicrosoftYaHei-35" x="117.285156"/>
       <use xlink:href="#MicrosoftYaHei-30" x="175.927734"/>
       <use xlink:href="#MicrosoftYaHei-30" x="234.570312"/>
      </g>
     </g>
    </g>
    <g id="xtick_5">
     <g id="line2d_5">
      <g>
       <use xlink:href="#mf8afb67822" x="294.138051" y="307.584" style="stroke: #000000; stroke-width: 0.8"/>
      </g>
     </g>
     <g id="text_5">
      <!-- 11000 -->
      <g transform="translate(279.477894 322.57775) scale(0.1 -0.1)">
       <use xlink:href="#MicrosoftYaHei-31"/>
       <use xlink:href="#MicrosoftYaHei-31" x="58.642578"/>
       <use xlink:href="#MicrosoftYaHei-30" x="117.285156"/>
       <use xlink:href="#MicrosoftYaHei-30" x="175.927734"/>
       <use xlink:href="#MicrosoftYaHei-30" x="234.570312"/>
      </g>
     </g>
    </g>
    <g id="xtick_6">
     <g id="line2d_6">
      <g>
       <use xlink:href="#mf8afb67822" x="350.482123" y="307.584" style="stroke: #000000; stroke-width: 0.8"/>
      </g>
     </g>
     <g id="text_6">
      <!-- 11500 -->
      <g transform="translate(335.821967 322.57775) scale(0.1 -0.1)">
       <use xlink:href="#MicrosoftYaHei-31"/>
       <use xlink:href="#MicrosoftYaHei-31" x="58.642578"/>
       <use xlink:href="#MicrosoftYaHei-35" x="117.285156"/>
       <use xlink:href="#MicrosoftYaHei-30" x="175.927734"/>
       <use xlink:href="#MicrosoftYaHei-30" x="234.570312"/>
      </g>
     </g>
    </g>
    <g id="xtick_7">
     <g id="line2d_7">
      <g>
       <use xlink:href="#mf8afb67822" x="406.826195" y="307.584" style="stroke: #000000; stroke-width: 0.8"/>
      </g>
     </g>
     <g id="text_7">
      <!-- 12000 -->
      <g transform="translate(392.166039 322.57775) scale(0.1 -0.1)">
       <defs>
        <path id="MicrosoftYaHei-32" d="M 2666 3572 
Q 2666 3963 2419 4186 
Q 2172 4409 1747 4409 
Q 1447 4409 1140 4256 
Q 834 4103 569 3819 
L 569 4413 
Q 806 4659 1107 4790 
Q 1409 4922 1816 4922 
Q 2472 4922 2872 4570 
Q 3272 4219 3272 3619 
Q 3272 3084 3026 2693 
Q 2781 2303 2188 1894 
Q 1581 1475 1376 1294 
Q 1172 1113 1090 947 
Q 1009 781 1009 544 
L 3416 544 
L 3416 0 
L 372 0 
L 372 241 
Q 372 659 486 951 
Q 600 1244 862 1520 
Q 1125 1797 1681 2184 
Q 2250 2584 2458 2886 
Q 2666 3188 2666 3572 
z
" transform="scale(0.015625)"/>
       </defs>
       <use xlink:href="#MicrosoftYaHei-31"/>
       <use xlink:href="#MicrosoftYaHei-32" x="58.642578"/>
       <use xlink:href="#MicrosoftYaHei-30" x="117.285156"/>
       <use xlink:href="#MicrosoftYaHei-30" x="175.927734"/>
       <use xlink:href="#MicrosoftYaHei-30" x="234.570312"/>
      </g>
     </g>
    </g>
    <g id="text_8">
     <!-- Total cost (distance) -->
     <g transform="translate(188.655312 337.057437) scale(0.1 -0.1)">
      <defs>
       <path id="MicrosoftYaHei-54" d="M 3550 4284 
L 2153 4284 
L 2153 0 
L 1525 0 
L 1525 4284 
L 134 4284 
L 134 4841 
L 3550 4841 
L 3550 4284 
z
" transform="scale(0.015625)"/>
       <path id="MicrosoftYaHei-6f" d="M 316 1691 
Q 316 2547 794 3042 
Q 1272 3538 2091 3538 
Q 2869 3538 3311 3061 
Q 3753 2584 3753 1744 
Q 3753 925 3281 422 
Q 2809 -81 2016 -81 
Q 1241 -81 778 406 
Q 316 894 316 1691 
z
M 941 1709 
Q 941 1113 1242 769 
Q 1544 425 2053 425 
Q 2578 425 2853 761 
Q 3128 1097 3128 1725 
Q 3128 2356 2853 2693 
Q 2578 3031 2053 3031 
Q 1538 3031 1239 2678 
Q 941 2325 941 1709 
z
" transform="scale(0.015625)"/>
       <path id="MicrosoftYaHei-74" d="M 2206 34 
Q 2006 -75 1666 -75 
Q 738 -75 738 953 
L 738 2950 
L 144 2950 
L 144 3456 
L 738 3456 
L 738 4288 
L 1347 4481 
L 1347 3456 
L 2206 3456 
L 2206 2950 
L 1347 2950 
L 1347 1063 
Q 1347 722 1462 575 
Q 1578 428 1847 428 
Q 2053 428 2206 544 
L 2206 34 
z
" transform="scale(0.015625)"/>
       <path id="MicrosoftYaHei-61" d="M 628 3216 
Q 1144 3538 1819 3538 
Q 3069 3538 3069 2225 
L 3069 0 
L 2463 0 
L 2463 534 
L 2447 534 
Q 2088 -81 1388 -81 
Q 884 -81 587 191 
Q 291 463 291 925 
Q 291 1894 1438 2053 
L 2463 2197 
Q 2463 3044 1763 3044 
Q 1141 3044 628 2625 
L 628 3216 
z
M 1653 1625 
Q 1228 1569 1067 1412 
Q 906 1256 906 975 
Q 906 728 1081 572 
Q 1256 416 1544 416 
Q 1944 416 2203 697 
Q 2463 978 2463 1403 
L 2463 1734 
L 1653 1625 
z
" transform="scale(0.015625)"/>
       <path id="MicrosoftYaHei-6c" d="M 544 0 
L 544 5116 
L 1156 5116 
L 1156 0 
L 544 0 
z
" transform="scale(0.015625)"/>
       <path id="MicrosoftYaHei-20" transform="scale(0.015625)"/>
       <path id="MicrosoftYaHei-63" d="M 2934 156 
Q 2538 -81 1978 -81 
Q 1228 -81 772 400 
Q 316 881 316 1647 
Q 316 2497 808 3017 
Q 1300 3538 2125 3538 
Q 2600 3538 2938 3369 
L 2938 2763 
Q 2572 3031 2125 3031 
Q 1600 3031 1270 2667 
Q 941 2303 941 1697 
Q 941 1100 1252 762 
Q 1563 425 2091 425 
Q 2538 425 2934 719 
L 2934 156 
z
" transform="scale(0.015625)"/>
       <path id="MicrosoftYaHei-73" d="M 353 747 
Q 816 413 1350 413 
Q 2066 413 2066 881 
Q 2066 1081 1909 1211 
Q 1753 1341 1275 1519 
Q 700 1750 528 1976 
Q 356 2203 356 2525 
Q 356 2984 745 3261 
Q 1134 3538 1703 3538 
Q 2144 3538 2522 3384 
L 2522 2794 
Q 2134 3044 1644 3044 
Q 1350 3044 1165 2916 
Q 981 2788 981 2578 
Q 981 2372 1114 2256 
Q 1247 2141 1703 1959 
Q 2281 1744 2484 1512 
Q 2688 1281 2688 941 
Q 2688 466 2298 192 
Q 1909 -81 1291 -81 
Q 753 -81 353 122 
L 353 747 
z
" transform="scale(0.015625)"/>
       <path id="MicrosoftYaHei-28" d="M 1531 -1100 
Q 478 100 478 1847 
Q 478 3594 1531 4841 
L 2072 4841 
Q 1016 3544 1016 1853 
Q 1016 166 2066 -1100 
L 1531 -1100 
z
" transform="scale(0.015625)"/>
       <path id="MicrosoftYaHei-64" d="M 3547 0 
L 2934 0 
L 2934 575 
L 2922 575 
Q 2544 -81 1747 -81 
Q 1091 -81 703 386 
Q 316 853 316 1647 
Q 316 2503 753 3020 
Q 1191 3538 1897 3538 
Q 2603 3538 2922 2988 
L 2934 2988 
L 2934 5116 
L 3547 5116 
L 3547 0 
z
M 2938 2056 
Q 2938 2472 2664 2751 
Q 2391 3031 1991 3031 
Q 1503 3031 1222 2667 
Q 941 2303 941 1675 
Q 941 1097 1211 761 
Q 1481 425 1931 425 
Q 2375 425 2656 754 
Q 2938 1084 2938 1575 
L 2938 2056 
z
" transform="scale(0.015625)"/>
       <path id="MicrosoftYaHei-69" d="M 472 4675 
Q 472 4838 583 4948 
Q 694 5059 856 5059 
Q 1022 5059 1136 4950 
Q 1250 4841 1250 4675 
Q 1250 4513 1136 4405 
Q 1022 4297 856 4297 
Q 691 4297 581 4405 
Q 472 4513 472 4675 
z
M 544 0 
L 544 3456 
L 1156 3456 
L 1156 0 
L 544 0 
z
" transform="scale(0.015625)"/>
       <path id="MicrosoftYaHei-6e" d="M 3469 0 
L 2859 0 
L 2859 1966 
Q 2859 3031 2081 3031 
Q 1678 3031 1418 2731 
Q 1159 2431 1159 1972 
L 1159 0 
L 547 0 
L 547 3456 
L 1159 3456 
L 1159 2884 
L 1172 2884 
Q 1563 3538 2306 3538 
Q 2875 3538 3172 3173 
Q 3469 2809 3469 2113 
L 3469 0 
z
" transform="scale(0.015625)"/>
       <path id="MicrosoftYaHei-65" d="M 3363 1572 
L 944 1572 
Q 959 1019 1246 717 
Q 1534 416 2050 416 
Q 2631 416 3116 788 
L 3116 241 
Q 2659 -81 1906 -81 
Q 1156 -81 736 394 
Q 316 869 316 1713 
Q 316 2506 777 3022 
Q 1238 3538 1922 3538 
Q 2600 3538 2981 3102 
Q 3363 2666 3363 1881 
L 3363 1572 
z
M 2750 2063 
Q 2747 2531 2528 2787 
Q 2309 3044 1913 3044 
Q 1547 3044 1280 2772 
Q 1013 2500 944 2063 
L 2750 2063 
z
" transform="scale(0.015625)"/>
       <path id="MicrosoftYaHei-29" d="M 78 -1100 
Q 1131 163 1131 1853 
Q 1131 3547 72 4841 
L 616 4841 
Q 1672 3603 1672 1847 
Q 1672 91 616 -1100 
L 78 -1100 
z
" transform="scale(0.015625)"/>
      </defs>
      <use xlink:href="#MicrosoftYaHei-54"/>
      <use xlink:href="#MicrosoftYaHei-6f" x="46.199219"/>
      <use xlink:href="#MicrosoftYaHei-74" x="109.773438"/>
      <use xlink:href="#MicrosoftYaHei-61" x="147.029297"/>
      <use xlink:href="#MicrosoftYaHei-6c" x="202.302734"/>
      <use xlink:href="#MicrosoftYaHei-20" x="228.914062"/>
      <use xlink:href="#MicrosoftYaHei-63" x="258.503906"/>
      <use xlink:href="#MicrosoftYaHei-6f" x="308.650391"/>
      <use xlink:href="#MicrosoftYaHei-73" x="372.224609"/>
      <use xlink:href="#MicrosoftYaHei-74" x="418.513672"/>
      <use xlink:href="#MicrosoftYaHei-20" x="455.769531"/>
      <use xlink:href="#MicrosoftYaHei-28" x="485.359375"/>
      <use xlink:href="#MicrosoftYaHei-64" x="518.757812"/>
      <use xlink:href="#MicrosoftYaHei-69" x="582.722656"/>
      <use xlink:href="#MicrosoftYaHei-73" x="609.333984"/>
      <use xlink:href="#MicrosoftYaHei-74" x="655.623047"/>
      <use xlink:href="#MicrosoftYaHei-61" x="692.878906"/>
      <use xlink:href="#MicrosoftYaHei-6e" x="748.152344"/>
      <use xlink:href="#MicrosoftYaHei-63" x="809.773438"/>
      <use xlink:href="#MicrosoftYaHei-65" x="859.919922"/>
      <use xlink:href="#MicrosoftYaHei-29" x="916.658203"/>
     </g>
    </g>
   </g>
   <g id="matplotlib.axis_2">
    <g id="ytick_1">
     <g id="line2d_8">
      <defs>
       <path id="m944330cd5f" d="M 0 0 
L -3.5 0 
" style="stroke: #000000; stroke-width: 0.8"/>
      </defs>
      <g>
       <use xlink:href="#m944330cd5f" x="57.6" y="299.38714" style="stroke: #000000; stroke-width: 0.8"/>
      </g>
     </g>
     <g id="text_9">
      <!-- 0 -->
      <g transform="translate(44.735937 303.384015) scale(0.1 -0.1)">
       <use xlink:href="#MicrosoftYaHei-30"/>
      </g>
     </g>
    </g>
    <g id="ytick_2">
     <g id="line2d_9">
      <g>
       <use xlink:href="#m944330cd5f" x="57.6" y="256.063358" style="stroke: #000000; stroke-width: 0.8"/>
      </g>
     </g>
     <g id="text_10">
      <!-- 500 -->
      <g transform="translate(33.007812 260.060233) scale(0.1 -0.1)">
       <use xlink:href="#MicrosoftYaHei-35"/>
       <use xlink:href="#MicrosoftYaHei-30" x="58.642578"/>
       <use xlink:href="#MicrosoftYaHei-30" x="117.285156"/>
      </g>
     </g>
    </g>
    <g id="ytick_3">
     <g id="line2d_10">
      <g>
       <use xlink:href="#m944330cd5f" x="57.6" y="212.739576" style="stroke: #000000; stroke-width: 0.8"/>
      </g>
     </g>
     <g id="text_11">
      <!-- 1000 -->
      <g transform="translate(27.14375 216.736451) scale(0.1 -0.1)">
       <use xlink:href="#MicrosoftYaHei-31"/>
       <use xlink:href="#MicrosoftYaHei-30" x="58.642578"/>
       <use xlink:href="#MicrosoftYaHei-30" x="117.285156"/>
       <use xlink:href="#MicrosoftYaHei-30" x="175.927734"/>
      </g>
     </g>
    </g>
    <g id="ytick_4">
     <g id="line2d_11">
      <g>
       <use xlink:href="#m944330cd5f" x="57.6" y="169.415794" style="stroke: #000000; stroke-width: 0.8"/>
      </g>
     </g>
     <g id="text_12">
      <!-- 1500 -->
      <g transform="translate(27.14375 173.412669) scale(0.1 -0.1)">
       <use xlink:href="#MicrosoftYaHei-31"/>
       <use xlink:href="#MicrosoftYaHei-35" x="58.642578"/>
       <use xlink:href="#MicrosoftYaHei-30" x="117.285156"/>
       <use xlink:href="#MicrosoftYaHei-30" x="175.927734"/>
      </g>
     </g>
    </g>
    <g id="ytick_5">
     <g id="line2d_12">
      <g>
       <use xlink:href="#m944330cd5f" x="57.6" y="126.092011" style="stroke: #000000; stroke-width: 0.8"/>
      </g>
     </g>
     <g id="text_13">
      <!-- 2000 -->
      <g transform="translate(27.14375 130.088886) scale(0.1 -0.1)">
       <use xlink:href="#MicrosoftYaHei-32"/>
       <use xlink:href="#MicrosoftYaHei-30" x="58.642578"/>
       <use xlink:href="#MicrosoftYaHei-30" x="117.285156"/>
       <use xlink:href="#MicrosoftYaHei-30" x="175.927734"/>
      </g>
     </g>
    </g>
    <g id="ytick_6">
     <g id="line2d_13">
      <g>
       <use xlink:href="#m944330cd5f" x="57.6" y="82.768229" style="stroke: #000000; stroke-width: 0.8"/>
      </g>
     </g>
     <g id="text_14">
      <!-- 2500 -->
      <g transform="translate(27.14375 86.765104) scale(0.1 -0.1)">
       <use xlink:href="#MicrosoftYaHei-32"/>
       <use xlink:href="#MicrosoftYaHei-35" x="58.642578"/>
       <use xlink:href="#MicrosoftYaHei-30" x="117.285156"/>
       <use xlink:href="#MicrosoftYaHei-30" x="175.927734"/>
      </g>
     </g>
    </g>
    <g id="text_15">
     <!-- Max-min tour distances (amplitude) -->
     <g transform="translate(20.657812 260.232687) rotate(-90) scale(0.1 -0.1)">
      <defs>
       <path id="MicrosoftYaHei-4d" d="M 5003 0 
L 5003 3206 
Q 5003 3603 5050 4159 
L 5034 4159 
Q 4953 3809 4891 3672 
L 3294 0 
L 2947 0 
L 1353 3644 
Q 1297 3769 1209 4159 
L 1191 4159 
Q 1222 3822 1222 3178 
L 1222 0 
L 625 0 
L 625 4841 
L 1472 4841 
L 2900 1522 
Q 3063 1141 3116 928 
L 3138 928 
Q 3300 1375 3366 1534 
L 4819 4841 
L 5625 4841 
L 5625 0 
L 5003 0 
z
" transform="scale(0.015625)"/>
       <path id="MicrosoftYaHei-78" d="M 3163 3456 
L 2006 1716 
L 3147 0 
L 2434 0 
L 1775 1100 
Q 1722 1188 1625 1369 
L 1613 1369 
Q 1609 1350 1456 1100 
L 784 0 
L 81 0 
L 1256 1697 
L 134 3456 
L 847 3456 
L 1494 2300 
Q 1553 2194 1638 2025 
L 1650 2025 
L 2491 3456 
L 3163 3456 
z
" transform="scale(0.015625)"/>
       <path id="MicrosoftYaHei-2d" d="M 2328 1681 
L 488 1681 
L 488 2153 
L 2328 2153 
L 2328 1681 
z
" transform="scale(0.015625)"/>
       <path id="MicrosoftYaHei-6d" d="M 5522 0 
L 4909 0 
L 4909 1984 
Q 4909 2547 4734 2789 
Q 4559 3031 4159 3031 
Q 3822 3031 3581 2715 
Q 3341 2400 3341 1969 
L 3341 0 
L 2728 0 
L 2728 2047 
Q 2728 3031 1969 3031 
Q 1619 3031 1389 2731 
Q 1159 2431 1159 1966 
L 1159 0 
L 547 0 
L 547 3456 
L 1159 3456 
L 1159 2909 
L 1172 2909 
Q 1541 3538 2250 3538 
Q 2597 3538 2862 3347 
Q 3128 3156 3231 2831 
Q 3616 3538 4381 3538 
Q 5522 3538 5522 2131 
L 5522 0 
z
" transform="scale(0.015625)"/>
       <path id="MicrosoftYaHei-75" d="M 3400 0 
L 2784 0 
L 2784 544 
L 2772 544 
Q 2425 -81 1706 -81 
Q 478 -81 478 1388 
L 478 3456 
L 1084 3456 
L 1084 1478 
Q 1084 425 1891 425 
Q 2291 425 2537 720 
Q 2784 1016 2784 1466 
L 2784 3456 
L 3400 3456 
L 3400 0 
z
" transform="scale(0.015625)"/>
       <path id="MicrosoftYaHei-72" d="M 2400 2850 
Q 2247 2959 1978 2959 
Q 1622 2959 1390 2626 
Q 1159 2294 1159 1750 
L 1159 0 
L 547 0 
L 547 3456 
L 1159 3456 
L 1159 2753 
L 1172 2753 
Q 1434 3516 2078 3516 
Q 2288 3516 2400 3469 
L 2400 2850 
z
" transform="scale(0.015625)"/>
       <path id="MicrosoftYaHei-70" d="M 1159 488 
L 1159 -1591 
L 547 -1591 
L 547 3456 
L 1159 3456 
L 1159 2859 
L 1172 2859 
Q 1578 3538 2359 3538 
Q 3022 3538 3398 3073 
Q 3775 2609 3775 1828 
Q 3775 966 3348 442 
Q 2922 -81 2200 -81 
Q 1534 -81 1172 488 
L 1159 488 
z
M 1156 1425 
Q 1156 1003 1428 714 
Q 1700 425 2109 425 
Q 2597 425 2872 800 
Q 3147 1175 3147 1838 
Q 3147 2397 2890 2714 
Q 2634 3031 2191 3031 
Q 1738 3031 1447 2709 
Q 1156 2388 1156 1884 
L 1156 1425 
z
" transform="scale(0.015625)"/>
      </defs>
      <use xlink:href="#MicrosoftYaHei-4d"/>
      <use xlink:href="#MicrosoftYaHei-61" x="97.705078"/>
      <use xlink:href="#MicrosoftYaHei-78" x="152.978516"/>
      <use xlink:href="#MicrosoftYaHei-2d" x="203.662109"/>
      <use xlink:href="#MicrosoftYaHei-6d" x="246.923828"/>
      <use xlink:href="#MicrosoftYaHei-69" x="340.625"/>
      <use xlink:href="#MicrosoftYaHei-6e" x="367.236328"/>
      <use xlink:href="#MicrosoftYaHei-20" x="428.857422"/>
      <use xlink:href="#MicrosoftYaHei-74" x="458.447266"/>
      <use xlink:href="#MicrosoftYaHei-6f" x="494.828125"/>
      <use xlink:href="#MicrosoftYaHei-75" x="558.402344"/>
      <use xlink:href="#MicrosoftYaHei-72" x="620.023438"/>
      <use xlink:href="#MicrosoftYaHei-20" x="658.207031"/>
      <use xlink:href="#MicrosoftYaHei-64" x="687.796875"/>
      <use xlink:href="#MicrosoftYaHei-69" x="751.761719"/>
      <use xlink:href="#MicrosoftYaHei-73" x="778.373047"/>
      <use xlink:href="#MicrosoftYaHei-74" x="824.662109"/>
      <use xlink:href="#MicrosoftYaHei-61" x="861.917969"/>
      <use xlink:href="#MicrosoftYaHei-6e" x="917.191406"/>
      <use xlink:href="#MicrosoftYaHei-63" x="978.8125"/>
      <use xlink:href="#MicrosoftYaHei-65" x="1028.958984"/>
      <use xlink:href="#MicrosoftYaHei-73" x="1085.697266"/>
      <use xlink:href="#MicrosoftYaHei-20" x="1131.986328"/>
      <use xlink:href="#MicrosoftYaHei-28" x="1161.576172"/>
      <use xlink:href="#MicrosoftYaHei-61" x="1194.974609"/>
      <use xlink:href="#MicrosoftYaHei-6d" x="1250.248047"/>
      <use xlink:href="#MicrosoftYaHei-70" x="1343.949219"/>
      <use xlink:href="#MicrosoftYaHei-6c" x="1407.816406"/>
      <use xlink:href="#MicrosoftYaHei-69" x="1434.427734"/>
      <use xlink:href="#MicrosoftYaHei-74" x="1461.039062"/>
      <use xlink:href="#MicrosoftYaHei-75" x="1498.294922"/>
      <use xlink:href="#MicrosoftYaHei-64" x="1559.916016"/>
      <use xlink:href="#MicrosoftYaHei-65" x="1623.880859"/>
      <use xlink:href="#MicrosoftYaHei-29" x="1680.619141"/>
     </g>
    </g>
   </g>
   <g id="line2d_14">
    <defs>
     <path id="m3bcf0f96d6" d="M 0 3 
C 0.795609 3 1.55874 2.683901 2.12132 2.12132 
C 2.683901 1.55874 3 0.795609 3 0 
C 3 -0.795609 2.683901 -1.55874 2.12132 -2.12132 
C 1.55874 -2.683901 0.795609 -3 0 -3 
C -0.795609 -3 -1.55874 -2.683901 -2.12132 -2.12132 
C -2.683901 -1.55874 -3 -0.795609 -3 0 
C -3 0.795609 -2.683901 1.55874 -2.12132 2.12132 
C -1.55874 2.683901 -0.795609 3 0 3 
z
" style="stroke: #008000"/>
    </defs>
    <g clip-path="url(#pd28030c889)">
     <use xlink:href="#m3bcf0f96d6" x="398.487273" y="295.488" style="fill: #008000; stroke: #008000"/>
     <use xlink:href="#m3bcf0f96d6" x="73.832727" y="53.568" style="fill: #008000; stroke: #008000"/>
     <use xlink:href="#m3bcf0f96d6" x="398.487273" y="295.488" style="fill: #008000; stroke: #008000"/>
     <use xlink:href="#m3bcf0f96d6" x="220.327316" y="136.229777" style="fill: #008000; stroke: #008000"/>
     <use xlink:href="#m3bcf0f96d6" x="280.052032" y="266.721009" style="fill: #008000; stroke: #008000"/>
     <use xlink:href="#m3bcf0f96d6" x="385.077383" y="289.682613" style="fill: #008000; stroke: #008000"/>
     <use xlink:href="#m3bcf0f96d6" x="279.488592" y="216.205479" style="fill: #008000; stroke: #008000"/>
     <use xlink:href="#m3bcf0f96d6" x="309.125574" y="288.3829" style="fill: #008000; stroke: #008000"/>
     <use xlink:href="#m3bcf0f96d6" x="265.289885" y="176.174304" style="fill: #008000; stroke: #008000"/>
     <use xlink:href="#m3bcf0f96d6" x="165.898942" y="129.904504" style="fill: #008000; stroke: #008000"/>
     <use xlink:href="#m3bcf0f96d6" x="229.342367" y="163.090521" style="fill: #008000; stroke: #008000"/>
     <use xlink:href="#m3bcf0f96d6" x="136.26196" y="77.04949" style="fill: #008000; stroke: #008000"/>
     <use xlink:href="#m3bcf0f96d6" x="267.769025" y="210.486739" style="fill: #008000; stroke: #008000"/>
     <use xlink:href="#m3bcf0f96d6" x="120.598307" y="68.991266" style="fill: #008000; stroke: #008000"/>
     <use xlink:href="#m3bcf0f96d6" x="148.883032" y="92.039519" style="fill: #008000; stroke: #008000"/>
     <use xlink:href="#m3bcf0f96d6" x="153.503246" y="124.445708" style="fill: #008000; stroke: #008000"/>
     <use xlink:href="#m3bcf0f96d6" x="258.528597" y="165.863244" style="fill: #008000; stroke: #008000"/>
     <use xlink:href="#m3bcf0f96d6" x="120.598307" y="68.991266" style="fill: #008000; stroke: #008000"/>
     <use xlink:href="#m3bcf0f96d6" x="304.843424" y="288.122957" style="fill: #008000; stroke: #008000"/>
     <use xlink:href="#m3bcf0f96d6" x="280.052032" y="266.721009" style="fill: #008000; stroke: #008000"/>
     <use xlink:href="#m3bcf0f96d6" x="304.843424" y="288.122957" style="fill: #008000; stroke: #008000"/>
     <use xlink:href="#m3bcf0f96d6" x="148.883032" y="92.039519" style="fill: #008000; stroke: #008000"/>
     <use xlink:href="#m3bcf0f96d6" x="385.077383" y="289.682613" style="fill: #008000; stroke: #008000"/>
     <use xlink:href="#m3bcf0f96d6" x="156.433137" y="126.698544" style="fill: #008000; stroke: #008000"/>
     <use xlink:href="#m3bcf0f96d6" x="229.342367" y="163.090521" style="fill: #008000; stroke: #008000"/>
     <use xlink:href="#m3bcf0f96d6" x="258.528597" y="165.863244" style="fill: #008000; stroke: #008000"/>
     <use xlink:href="#m3bcf0f96d6" x="267.769025" y="210.486739" style="fill: #008000; stroke: #008000"/>
     <use xlink:href="#m3bcf0f96d6" x="279.488592" y="216.205479" style="fill: #008000; stroke: #008000"/>
     <use xlink:href="#m3bcf0f96d6" x="161.842168" y="129.038029" style="fill: #008000; stroke: #008000"/>
     <use xlink:href="#m3bcf0f96d6" x="161.842168" y="129.038029" style="fill: #008000; stroke: #008000"/>
     <use xlink:href="#m3bcf0f96d6" x="309.125574" y="288.3829" style="fill: #008000; stroke: #008000"/>
     <use xlink:href="#m3bcf0f96d6" x="120.598307" y="68.991266" style="fill: #008000; stroke: #008000"/>
     <use xlink:href="#m3bcf0f96d6" x="120.598307" y="68.991266" style="fill: #008000; stroke: #008000"/>
     <use xlink:href="#m3bcf0f96d6" x="120.598307" y="68.991266" style="fill: #008000; stroke: #008000"/>
     <use xlink:href="#m3bcf0f96d6" x="148.883032" y="92.039519" style="fill: #008000; stroke: #008000"/>
     <use xlink:href="#m3bcf0f96d6" x="148.883032" y="92.039519" style="fill: #008000; stroke: #008000"/>
     <use xlink:href="#m3bcf0f96d6" x="148.883032" y="92.039519" style="fill: #008000; stroke: #008000"/>
     <use xlink:href="#m3bcf0f96d6" x="148.883032" y="92.039519" style="fill: #008000; stroke: #008000"/>
     <use xlink:href="#m3bcf0f96d6" x="148.883032" y="92.039519" style="fill: #008000; stroke: #008000"/>
     <use xlink:href="#m3bcf0f96d6" x="161.842168" y="129.038029" style="fill: #008000; stroke: #008000"/>
     <use xlink:href="#m3bcf0f96d6" x="229.342367" y="163.090521" style="fill: #008000; stroke: #008000"/>
     <use xlink:href="#m3bcf0f96d6" x="229.342367" y="163.090521" style="fill: #008000; stroke: #008000"/>
     <use xlink:href="#m3bcf0f96d6" x="229.342367" y="163.090521" style="fill: #008000; stroke: #008000"/>
     <use xlink:href="#m3bcf0f96d6" x="229.342367" y="163.090521" style="fill: #008000; stroke: #008000"/>
     <use xlink:href="#m3bcf0f96d6" x="229.342367" y="163.090521" style="fill: #008000; stroke: #008000"/>
     <use xlink:href="#m3bcf0f96d6" x="229.342367" y="163.090521" style="fill: #008000; stroke: #008000"/>
     <use xlink:href="#m3bcf0f96d6" x="229.342367" y="163.090521" style="fill: #008000; stroke: #008000"/>
     <use xlink:href="#m3bcf0f96d6" x="229.342367" y="163.090521" style="fill: #008000; stroke: #008000"/>
     <use xlink:href="#m3bcf0f96d6" x="229.342367" y="163.090521" style="fill: #008000; stroke: #008000"/>
     <use xlink:href="#m3bcf0f96d6" x="229.342367" y="163.090521" style="fill: #008000; stroke: #008000"/>
     <use xlink:href="#m3bcf0f96d6" x="229.342367" y="163.090521" style="fill: #008000; stroke: #008000"/>
     <use xlink:href="#m3bcf0f96d6" x="229.342367" y="163.090521" style="fill: #008000; stroke: #008000"/>
     <use xlink:href="#m3bcf0f96d6" x="229.342367" y="163.090521" style="fill: #008000; stroke: #008000"/>
     <use xlink:href="#m3bcf0f96d6" x="229.342367" y="163.090521" style="fill: #008000; stroke: #008000"/>
     <use xlink:href="#m3bcf0f96d6" x="229.342367" y="163.090521" style="fill: #008000; stroke: #008000"/>
     <use xlink:href="#m3bcf0f96d6" x="229.342367" y="163.090521" style="fill: #008000; stroke: #008000"/>
     <use xlink:href="#m3bcf0f96d6" x="229.342367" y="163.090521" style="fill: #008000; stroke: #008000"/>
     <use xlink:href="#m3bcf0f96d6" x="229.342367" y="163.090521" style="fill: #008000; stroke: #008000"/>
     <use xlink:href="#m3bcf0f96d6" x="229.342367" y="163.090521" style="fill: #008000; stroke: #008000"/>
     <use xlink:href="#m3bcf0f96d6" x="229.342367" y="163.090521" style="fill: #008000; stroke: #008000"/>
     <use xlink:href="#m3bcf0f96d6" x="229.342367" y="163.090521" style="fill: #008000; stroke: #008000"/>
     <use xlink:href="#m3bcf0f96d6" x="229.342367" y="163.090521" style="fill: #008000; stroke: #008000"/>
     <use xlink:href="#m3bcf0f96d6" x="229.342367" y="163.090521" style="fill: #008000; stroke: #008000"/>
     <use xlink:href="#m3bcf0f96d6" x="229.342367" y="163.090521" style="fill: #008000; stroke: #008000"/>
     <use xlink:href="#m3bcf0f96d6" x="229.342367" y="163.090521" style="fill: #008000; stroke: #008000"/>
     <use xlink:href="#m3bcf0f96d6" x="229.342367" y="163.090521" style="fill: #008000; stroke: #008000"/>
     <use xlink:href="#m3bcf0f96d6" x="229.342367" y="163.090521" style="fill: #008000; stroke: #008000"/>
     <use xlink:href="#m3bcf0f96d6" x="229.342367" y="163.090521" style="fill: #008000; stroke: #008000"/>
     <use xlink:href="#m3bcf0f96d6" x="229.342367" y="163.090521" style="fill: #008000; stroke: #008000"/>
     <use xlink:href="#m3bcf0f96d6" x="229.342367" y="163.090521" style="fill: #008000; stroke: #008000"/>
     <use xlink:href="#m3bcf0f96d6" x="229.342367" y="163.090521" style="fill: #008000; stroke: #008000"/>
     <use xlink:href="#m3bcf0f96d6" x="229.342367" y="163.090521" style="fill: #008000; stroke: #008000"/>
     <use xlink:href="#m3bcf0f96d6" x="229.342367" y="163.090521" style="fill: #008000; stroke: #008000"/>
     <use xlink:href="#m3bcf0f96d6" x="229.342367" y="163.090521" style="fill: #008000; stroke: #008000"/>
     <use xlink:href="#m3bcf0f96d6" x="229.342367" y="163.090521" style="fill: #008000; stroke: #008000"/>
     <use xlink:href="#m3bcf0f96d6" x="229.342367" y="163.090521" style="fill: #008000; stroke: #008000"/>
     <use xlink:href="#m3bcf0f96d6" x="229.342367" y="163.090521" style="fill: #008000; stroke: #008000"/>
     <use xlink:href="#m3bcf0f96d6" x="229.342367" y="163.090521" style="fill: #008000; stroke: #008000"/>
     <use xlink:href="#m3bcf0f96d6" x="229.342367" y="163.090521" style="fill: #008000; stroke: #008000"/>
     <use xlink:href="#m3bcf0f96d6" x="229.342367" y="163.090521" style="fill: #008000; stroke: #008000"/>
     <use xlink:href="#m3bcf0f96d6" x="229.342367" y="163.090521" style="fill: #008000; stroke: #008000"/>
     <use xlink:href="#m3bcf0f96d6" x="229.342367" y="163.090521" style="fill: #008000; stroke: #008000"/>
     <use xlink:href="#m3bcf0f96d6" x="229.342367" y="163.090521" style="fill: #008000; stroke: #008000"/>
     <use xlink:href="#m3bcf0f96d6" x="229.342367" y="163.090521" style="fill: #008000; stroke: #008000"/>
     <use xlink:href="#m3bcf0f96d6" x="229.342367" y="163.090521" style="fill: #008000; stroke: #008000"/>
     <use xlink:href="#m3bcf0f96d6" x="229.342367" y="163.090521" style="fill: #008000; stroke: #008000"/>
     <use xlink:href="#m3bcf0f96d6" x="229.342367" y="163.090521" style="fill: #008000; stroke: #008000"/>
     <use xlink:href="#m3bcf0f96d6" x="229.342367" y="163.090521" style="fill: #008000; stroke: #008000"/>
     <use xlink:href="#m3bcf0f96d6" x="229.342367" y="163.090521" style="fill: #008000; stroke: #008000"/>
     <use xlink:href="#m3bcf0f96d6" x="229.342367" y="163.090521" style="fill: #008000; stroke: #008000"/>
     <use xlink:href="#m3bcf0f96d6" x="229.342367" y="163.090521" style="fill: #008000; stroke: #008000"/>
     <use xlink:href="#m3bcf0f96d6" x="229.342367" y="163.090521" style="fill: #008000; stroke: #008000"/>
     <use xlink:href="#m3bcf0f96d6" x="229.342367" y="163.090521" style="fill: #008000; stroke: #008000"/>
     <use xlink:href="#m3bcf0f96d6" x="229.342367" y="163.090521" style="fill: #008000; stroke: #008000"/>
     <use xlink:href="#m3bcf0f96d6" x="229.342367" y="163.090521" style="fill: #008000; stroke: #008000"/>
     <use xlink:href="#m3bcf0f96d6" x="258.528597" y="165.863244" style="fill: #008000; stroke: #008000"/>
     <use xlink:href="#m3bcf0f96d6" x="280.052032" y="266.721009" style="fill: #008000; stroke: #008000"/>
     <use xlink:href="#m3bcf0f96d6" x="280.052032" y="266.721009" style="fill: #008000; stroke: #008000"/>
     <use xlink:href="#m3bcf0f96d6" x="280.052032" y="266.721009" style="fill: #008000; stroke: #008000"/>
     <use xlink:href="#m3bcf0f96d6" x="304.843424" y="288.122957" style="fill: #008000; stroke: #008000"/>
    </g>
   </g>
   <g id="patch_3">
    <path d="M 57.6 307.584 
L 57.6 41.472 
" style="fill: none; stroke: #000000; stroke-width: 0.8; stroke-linejoin: miter; stroke-linecap: square"/>
   </g>
   <g id="patch_4">
    <path d="M 414.72 307.584 
L 414.72 41.472 
" style="fill: none; stroke: #000000; stroke-width: 0.8; stroke-linejoin: miter; stroke-linecap: square"/>
   </g>
   <g id="patch_5">
    <path d="M 57.6 307.584 
L 414.72 307.584 
" style="fill: none; stroke: #000000; stroke-width: 0.8; stroke-linejoin: miter; stroke-linecap: square"/>
   </g>
   <g id="patch_6">
    <path d="M 57.6 41.472 
L 414.72 41.472 
" style="fill: none; stroke: #000000; stroke-width: 0.8; stroke-linejoin: miter; stroke-linecap: square"/>
   </g>
  </g>
 </g>
 <defs>
  <clipPath id="pd28030c889">
   <rect x="57.6" y="41.472" width="357.12" height="266.112"/>
  </clipPath>
 </defs>
</svg>
